<?xml version="1.0" encoding="utf-8"?>
<!DOCTYPE svg PUBLIC "-//W3C//DTD SVG 1.1//EN" "http://www.w3.org/Graphics/SVG/1.1/DTD/svg11.dtd">
<svg aria-labelledby="title-icon-linkedin" version="1.1" xmlns="http://www.w3.org/2000/svg" xmlns:xlink="http://www.w3.org/1999/xlink" width="16" height="16" viewBox="0 0 32 32">
	<title id="title-icon-linkedin" lang="en">LinkedIn</title>

	<path fill="#828282" class="icons-background" d="M25 17c0-2.762-1.515-5-4-5-2 0-3 1.35-4 2.482V12h-4v14h4v-8c0-1.105.895-2 2-2s2 .895 2 2v8h4v-9zM11 8c0-1.105-.895-2-2-2s-2 .895-2 2 .895 2 2 2 2-.895 2-2zM7 26h4V12H7v14zM2 0h28c1.105 0 2 .895 2 2v28c0 1.105-.895 2-2 2H2c-1.105 0-2-.895-2-2V2C0 .895.895 0 2 0z"></path>
</svg>
